<svg width="158" height="40" viewBox="0 0 158 40" fill="none" xmlns="http://www.w3.org/2000/svg">
<path d="M25.752 39H15.72L6.12 13.224C6.44 15.752 6.68 17.992 6.84 19.944C7.032 21.864 7.128 24.152 7.128 26.808V39H0.119995V5.73602H9.912L19.752 31.56C19.048 27.176 18.696 23.048 18.696 19.176V5.73602H25.752V39Z" fill="#0E0E0E"/>
<path d="M39.3881 13.512V39H31.8041V13.512H39.3881ZM35.5481 0.0720215C36.8601 0.0720215 37.9321 0.488022 38.7641 1.32002C39.6281 2.12002 40.0601 3.14402 40.0601 4.39202C40.0601 5.64002 39.6281 6.68002 38.7641 7.51202C37.9321 8.31202 36.8601 8.71202 35.5481 8.71202C34.2361 8.71202 33.1641 8.31202 32.3321 7.51202C31.5001 6.68002 31.0841 5.64002 31.0841 4.39202C31.0841 3.14402 31.5001 2.12002 32.3321 1.32002C33.1641 0.488022 34.2361 0.0720215 35.5481 0.0720215Z" fill="#0E0E0E"/>
<path d="M67.575 25.752C67.575 26.808 67.527 27.72 67.431 28.488H51.639C51.895 30.632 52.503 32.136 53.463 33C54.423 33.864 55.751 34.296 57.447 34.296C58.471 34.296 59.463 34.12 60.423 33.768C61.383 33.384 62.423 32.808 63.543 32.04L66.663 36.264C63.687 38.632 60.375 39.816 56.727 39.816C52.599 39.816 49.431 38.6 47.223 36.168C45.015 33.736 43.911 30.472 43.911 26.376C43.911 23.784 44.375 21.464 45.303 19.416C46.231 17.336 47.591 15.704 49.383 14.52C51.175 13.304 53.319 12.696 55.815 12.696C59.495 12.696 62.375 13.848 64.455 16.152C66.535 18.456 67.575 21.656 67.575 25.752ZM60.135 23.592C60.071 19.688 58.695 17.736 56.007 17.736C54.695 17.736 53.671 18.216 52.935 19.176C52.231 20.136 51.799 21.72 51.639 23.928H60.135V23.592Z" fill="#0E0E0E"/>
<path d="M78.6034 39.816C76.3954 39.816 74.6674 39.192 73.4194 37.944C72.2034 36.664 71.5954 34.856 71.5954 32.52V3.38402L79.1794 2.56802V32.232C79.1794 33.288 79.6114 33.816 80.4754 33.816C80.9234 33.816 81.3394 33.736 81.7234 33.576L83.2114 38.952C81.8354 39.528 80.2994 39.816 78.6034 39.816Z" fill="#0E0E0E"/>
<path d="M95.0614 12.696C96.8854 12.696 98.5974 12.968 100.197 13.512C101.797 14.056 103.205 14.824 104.421 15.816L101.637 20.088C99.5574 18.776 97.4614 18.12 95.3494 18.12C94.3574 18.12 93.5894 18.296 93.0454 18.648C92.5334 18.968 92.2774 19.432 92.2774 20.04C92.2774 20.52 92.3894 20.92 92.6134 21.24C92.8694 21.528 93.3654 21.832 94.1014 22.152C94.8374 22.472 95.9734 22.856 97.5094 23.304C100.165 24.072 102.133 25.08 103.413 26.328C104.725 27.544 105.381 29.24 105.381 31.416C105.381 33.144 104.885 34.648 103.893 35.928C102.901 37.176 101.541 38.136 99.8134 38.808C98.0854 39.48 96.1654 39.816 94.0534 39.816C91.9094 39.816 89.9094 39.48 88.0534 38.808C86.2294 38.136 84.6774 37.208 83.3974 36.024L87.0934 31.896C89.2374 33.56 91.4934 34.392 93.8614 34.392C95.0134 34.392 95.9094 34.184 96.5494 33.768C97.2214 33.352 97.5574 32.76 97.5574 31.992C97.5574 31.384 97.4294 30.904 97.1734 30.552C96.9174 30.2 96.4214 29.88 95.6854 29.592C94.9494 29.272 93.7814 28.888 92.1814 28.44C89.6534 27.704 87.7654 26.68 86.5174 25.368C85.2694 24.056 84.6454 22.424 84.6454 20.472C84.6454 19 85.0614 17.688 85.8934 16.536C86.7574 15.352 87.9734 14.424 89.5414 13.752C91.1414 13.048 92.9814 12.696 95.0614 12.696Z" fill="#0E0E0E"/>
<path d="M131.512 25.752C131.512 26.808 131.465 27.72 131.368 28.488H115.576C115.832 30.632 116.44 32.136 117.4 33C118.36 33.864 119.688 34.296 121.384 34.296C122.408 34.296 123.4 34.12 124.36 33.768C125.32 33.384 126.36 32.808 127.48 32.04L130.6 36.264C127.624 38.632 124.312 39.816 120.664 39.816C116.536 39.816 113.368 38.6 111.16 36.168C108.952 33.736 107.848 30.472 107.848 26.376C107.848 23.784 108.312 21.464 109.24 19.416C110.168 17.336 111.528 15.704 113.32 14.52C115.112 13.304 117.256 12.696 119.752 12.696C123.432 12.696 126.313 13.848 128.393 16.152C130.473 18.456 131.512 21.656 131.512 25.752ZM124.072 23.592C124.008 19.688 122.632 17.736 119.944 17.736C118.632 17.736 117.608 18.216 116.872 19.176C116.168 20.136 115.736 21.72 115.576 23.928H124.072V23.592Z" fill="#0E0E0E"/>
<path d="M150.701 12.696C152.909 12.696 154.637 13.368 155.885 14.712C157.133 16.056 157.757 17.944 157.757 20.376V39H150.173V21.672C150.173 20.392 149.965 19.512 149.549 19.032C149.165 18.52 148.573 18.264 147.773 18.264C146.237 18.264 144.765 19.368 143.357 21.576V39H135.773V13.512H142.397L142.925 16.536C144.013 15.256 145.181 14.296 146.429 13.656C147.709 13.016 149.133 12.696 150.701 12.696Z" fill="#0E0E0E"/>
</svg>
